<svg width="518.301" height="67.601" viewBox="0 0 518.301 67.601" xmlns="http://www.w3.org/2000/svg"><g id="svgGroup" stroke-linecap="round" fill-rule="evenodd" font-size="9pt" stroke="#00000000" stroke-width="0.0mm" fill="#dbebff" style="stroke:#00000000;stroke-width:0.0mm;fill:#dbebff"><path d="M 96 60.401 L 96 63.001 A 4.424 4.424 0 0 1 94.692 66.208 A 5.392 5.392 0 0 1 94.65 66.251 A 4.705 4.705 0 0 1 93.261 67.231 A 4.228 4.228 0 0 1 91.5 67.601 L 57.1 67.601 A 4.294 4.294 0 0 1 54.038 66.336 A 5.636 5.636 0 0 1 53.95 66.251 A 4.425 4.425 0 0 1 52.601 63.06 A 5.312 5.312 0 0 1 52.6 63.001 L 52.6 4.601 A 4.851 4.851 0 0 1 52.877 2.932 A 4.269 4.269 0 0 1 53.95 1.301 Q 55.3 0.001 57.1 0.001 L 91.5 0.001 Q 93.3 0.001 94.65 1.301 A 4.348 4.348 0 0 1 95.997 4.415 A 5.784 5.784 0 0 1 96 4.601 L 96 7.301 A 4.424 4.424 0 0 1 94.692 10.508 A 5.392 5.392 0 0 1 94.65 10.551 A 4.705 4.705 0 0 1 93.261 11.531 A 4.228 4.228 0 0 1 91.5 11.901 L 65.7 11.901 Q 64.756 11.901 64.555 12.705 A 2.046 2.046 0 0 0 64.5 13.201 L 64.5 26.501 A 2.378 2.378 0 0 0 64.553 27.027 Q 64.719 27.756 65.406 27.877 A 1.697 1.697 0 0 0 65.7 27.901 L 87.9 27.901 A 5.034 5.034 0 0 1 89.543 28.158 A 4.286 4.286 0 0 1 91.2 29.201 Q 92.5 30.501 92.5 32.401 L 92.5 35.201 Q 92.5 37.101 91.2 38.451 A 4.348 4.348 0 0 1 88.086 39.798 A 5.784 5.784 0 0 1 87.9 39.801 L 65.7 39.801 A 1.728 1.728 0 0 0 65.225 39.86 Q 64.693 40.013 64.551 40.556 A 1.768 1.768 0 0 0 64.5 41.001 L 64.5 54.501 Q 64.5 55.801 65.7 55.801 L 91.5 55.801 Q 93.3 55.801 94.65 57.101 A 4.348 4.348 0 0 1 95.997 60.215 A 5.784 5.784 0 0 1 96 60.401 Z M 518.3 60.401 L 518.3 63.001 A 4.424 4.424 0 0 1 516.992 66.208 A 5.392 5.392 0 0 1 516.95 66.251 A 4.705 4.705 0 0 1 515.561 67.231 A 4.228 4.228 0 0 1 513.8 67.601 L 479.4 67.601 A 4.294 4.294 0 0 1 476.338 66.336 A 5.636 5.636 0 0 1 476.25 66.251 A 4.425 4.425 0 0 1 474.901 63.06 A 5.312 5.312 0 0 1 474.9 63.001 L 474.9 4.601 A 4.851 4.851 0 0 1 475.177 2.932 A 4.269 4.269 0 0 1 476.25 1.301 Q 477.6 0.001 479.4 0.001 L 513.8 0.001 Q 515.6 0.001 516.95 1.301 A 4.348 4.348 0 0 1 518.297 4.415 A 5.784 5.784 0 0 1 518.3 4.601 L 518.3 7.301 A 4.424 4.424 0 0 1 516.992 10.508 A 5.392 5.392 0 0 1 516.95 10.551 A 4.705 4.705 0 0 1 515.561 11.531 A 4.228 4.228 0 0 1 513.8 11.901 L 488 11.901 Q 487.056 11.901 486.855 12.705 A 2.046 2.046 0 0 0 486.8 13.201 L 486.8 26.501 A 2.378 2.378 0 0 0 486.853 27.027 Q 487.019 27.756 487.706 27.877 A 1.697 1.697 0 0 0 488 27.901 L 510.2 27.901 A 5.034 5.034 0 0 1 511.843 28.158 A 4.286 4.286 0 0 1 513.5 29.201 Q 514.8 30.501 514.8 32.401 L 514.8 35.201 Q 514.8 37.101 513.5 38.451 A 4.348 4.348 0 0 1 510.386 39.798 A 5.784 5.784 0 0 1 510.2 39.801 L 488 39.801 A 1.728 1.728 0 0 0 487.525 39.86 Q 486.993 40.013 486.851 40.556 A 1.768 1.768 0 0 0 486.8 41.001 L 486.8 54.501 Q 486.8 55.801 488 55.801 L 513.8 55.801 Q 515.6 55.801 516.95 57.101 A 4.348 4.348 0 0 1 518.297 60.215 A 5.784 5.784 0 0 1 518.3 60.401 Z M 44.5 4.601 L 44.5 63.001 Q 44.5 64.901 43.2 66.251 A 4.348 4.348 0 0 1 40.086 67.598 A 5.784 5.784 0 0 1 39.9 67.601 L 37.2 67.601 A 4.424 4.424 0 0 1 33.993 66.293 A 5.392 5.392 0 0 1 33.95 66.251 A 4.425 4.425 0 0 1 32.601 63.06 A 5.312 5.312 0 0 1 32.6 63.001 L 32.6 41.001 Q 32.6 40.057 31.796 39.855 A 2.046 2.046 0 0 0 31.3 39.801 L 13.3 39.801 Q 12 39.801 12 41.001 L 12 63.001 A 4.424 4.424 0 0 1 10.692 66.208 A 5.392 5.392 0 0 1 10.65 66.251 A 4.425 4.425 0 0 1 7.46 67.6 A 5.312 5.312 0 0 1 7.4 67.601 L 4.6 67.601 A 4.424 4.424 0 0 1 1.393 66.293 A 5.392 5.392 0 0 1 1.35 66.251 A 4.425 4.425 0 0 1 0.001 63.06 A 5.312 5.312 0 0 1 0 63.001 L 0 4.601 A 4.851 4.851 0 0 1 0.277 2.932 A 4.269 4.269 0 0 1 1.35 1.301 Q 2.7 0.001 4.6 0.001 L 7.4 0.001 Q 9.3 0.001 10.65 1.301 A 4.348 4.348 0 0 1 11.997 4.415 A 5.784 5.784 0 0 1 12 4.601 L 12 26.501 A 2.187 2.187 0 0 0 12.06 27.038 Q 12.238 27.735 12.939 27.869 A 1.933 1.933 0 0 0 13.3 27.901 L 31.3 27.901 Q 32.327 27.901 32.543 27.028 A 2.201 2.201 0 0 0 32.6 26.501 L 32.6 4.601 A 4.851 4.851 0 0 1 32.877 2.932 A 4.269 4.269 0 0 1 33.95 1.301 Q 35.3 0.001 37.2 0.001 L 39.9 0.001 A 5.034 5.034 0 0 1 41.543 0.258 A 4.286 4.286 0 0 1 43.2 1.301 A 4.391 4.391 0 0 1 44.489 4.232 A 5.865 5.865 0 0 1 44.5 4.601 Z M 300.4 4.601 L 300.4 63.001 Q 300.4 64.901 299.1 66.251 A 4.348 4.348 0 0 1 295.986 67.598 A 5.784 5.784 0 0 1 295.8 67.601 L 293.1 67.601 A 4.424 4.424 0 0 1 289.893 66.293 A 5.392 5.392 0 0 1 289.85 66.251 A 4.425 4.425 0 0 1 288.501 63.06 A 5.312 5.312 0 0 1 288.5 63.001 L 288.5 41.001 Q 288.5 40.057 287.696 39.855 A 2.046 2.046 0 0 0 287.2 39.801 L 269.2 39.801 Q 267.9 39.801 267.9 41.001 L 267.9 63.001 A 4.424 4.424 0 0 1 266.592 66.208 A 5.392 5.392 0 0 1 266.55 66.251 A 4.425 4.425 0 0 1 263.36 67.6 A 5.312 5.312 0 0 1 263.3 67.601 L 260.5 67.601 A 4.424 4.424 0 0 1 257.293 66.293 A 5.392 5.392 0 0 1 257.25 66.251 A 4.425 4.425 0 0 1 255.901 63.06 A 5.312 5.312 0 0 1 255.9 63.001 L 255.9 4.601 A 4.851 4.851 0 0 1 256.177 2.932 A 4.269 4.269 0 0 1 257.25 1.301 Q 258.6 0.001 260.5 0.001 L 263.3 0.001 Q 265.2 0.001 266.55 1.301 A 4.348 4.348 0 0 1 267.897 4.415 A 5.784 5.784 0 0 1 267.9 4.601 L 267.9 26.501 A 2.187 2.187 0 0 0 267.96 27.038 Q 268.138 27.735 268.839 27.869 A 1.933 1.933 0 0 0 269.2 27.901 L 287.2 27.901 Q 288.227 27.901 288.443 27.028 A 2.201 2.201 0 0 0 288.5 26.501 L 288.5 4.601 A 4.851 4.851 0 0 1 288.777 2.932 A 4.269 4.269 0 0 1 289.85 1.301 Q 291.2 0.001 293.1 0.001 L 295.8 0.001 A 5.034 5.034 0 0 1 297.443 0.258 A 4.286 4.286 0 0 1 299.1 1.301 A 4.391 4.391 0 0 1 300.389 4.232 A 5.865 5.865 0 0 1 300.4 4.601 Z M 353 51.401 L 353 54.401 Q 353 58.001 351.2 61.001 Q 349.4 64.001 346.4 65.801 Q 343.4 67.601 339.8 67.601 L 321.8 67.601 Q 318.2 67.601 315.15 65.801 Q 312.1 64.001 310.3 61.001 Q 308.5 58.001 308.5 54.401 L 308.5 13.301 A 13.067 13.067 0 0 1 309.466 8.256 A 12.503 12.503 0 0 1 310.3 6.601 Q 312.1 3.601 315.15 1.801 Q 318.2 0.001 321.8 0.001 L 339.8 0.001 Q 343.4 0.001 346.4 1.801 Q 349.4 3.601 351.2 6.601 Q 353 9.601 353 13.301 L 353 16.001 A 4.571 4.571 0 0 1 352.634 17.849 A 4.385 4.385 0 0 1 351.7 19.201 A 4.391 4.391 0 0 1 348.769 20.489 A 5.865 5.865 0 0 1 348.4 20.501 L 345.7 20.501 Q 343.8 20.501 342.45 19.201 Q 341.1 17.901 341.1 16.001 L 341.1 13.301 A 2.187 2.187 0 0 0 341.04 12.764 Q 340.863 12.066 340.162 11.932 A 1.933 1.933 0 0 0 339.8 11.901 L 321.8 11.901 Q 320.774 11.901 320.558 12.773 A 2.201 2.201 0 0 0 320.5 13.301 L 320.5 54.401 A 1.286 1.286 0 0 0 320.685 55.057 A 1.836 1.836 0 0 0 320.9 55.351 A 1.553 1.553 0 0 0 321.194 55.611 A 1.069 1.069 0 0 0 321.8 55.801 L 339.8 55.801 A 1.084 1.084 0 0 0 340.467 55.568 A 1.619 1.619 0 0 0 340.7 55.351 A 1.78 1.78 0 0 0 340.948 54.999 A 1.269 1.269 0 0 0 341.1 54.401 L 341.1 51.401 A 4.424 4.424 0 0 1 342.408 48.193 A 5.392 5.392 0 0 1 342.45 48.151 A 4.425 4.425 0 0 1 345.641 46.801 A 5.312 5.312 0 0 1 345.7 46.801 L 348.4 46.801 A 4.851 4.851 0 0 1 350.069 47.078 A 4.269 4.269 0 0 1 351.7 48.151 Q 353 49.501 353 51.401 Z M 458.1 41.501 L 466.3 61.301 A 5.521 5.521 0 0 1 466.623 62.267 Q 466.993 63.88 466.142 65.281 A 4.818 4.818 0 0 1 466 65.501 A 5.641 5.641 0 0 1 464.847 66.718 A 4.24 4.24 0 0 1 462.2 67.601 L 459.2 67.601 A 4.424 4.424 0 0 1 457.318 67.169 A 5.693 5.693 0 0 1 456.65 66.801 A 4.979 4.979 0 0 1 455.643 65.963 A 4.007 4.007 0 0 1 454.9 64.801 L 445.5 42.301 A 2.16 2.16 0 0 0 445.098 41.655 Q 444.672 41.196 443.993 41.117 A 2.537 2.537 0 0 0 443.7 41.101 L 434.4 41.101 Q 433.369 41.101 433.156 41.919 A 1.915 1.915 0 0 0 433.1 42.401 L 433.1 63.001 A 4.424 4.424 0 0 1 431.792 66.208 A 5.392 5.392 0 0 1 431.75 66.251 A 4.425 4.425 0 0 1 428.56 67.6 A 5.312 5.312 0 0 1 428.5 67.601 L 425.7 67.601 A 4.375 4.375 0 0 1 423.987 67.274 A 4.132 4.132 0 0 1 422.55 66.251 Q 421.3 64.901 421.3 63.001 L 421.3 4.601 A 5.242 5.242 0 0 1 421.535 2.998 A 4.314 4.314 0 0 1 422.55 1.301 A 4.164 4.164 0 0 1 425.582 0.002 A 5.466 5.466 0 0 1 425.7 0.001 L 452.8 0.001 Q 456.4 0.001 459.4 1.801 Q 462.4 3.601 464.2 6.601 Q 466 9.601 466 13.301 L 466 27.901 Q 466 31.801 463.95 34.951 Q 461.9 38.101 458.6 39.801 A 0.714 0.714 0 0 0 458.218 40.05 Q 458.134 40.152 458.066 40.293 A 1.744 1.744 0 0 0 458 40.451 A 1.328 1.328 0 0 0 457.93 40.736 Q 457.886 41.079 458.046 41.402 A 1.42 1.42 0 0 0 458.1 41.501 Z M 136.2 3.101 L 155.7 61.601 A 5.804 5.804 0 0 1 155.875 62.624 Q 156.002 64.285 155.055 65.719 A 5.85 5.85 0 0 1 155 65.801 A 4.174 4.174 0 0 1 151.954 67.565 A 5.83 5.83 0 0 1 151.3 67.601 L 148.4 67.601 A 4.344 4.344 0 0 1 146.125 66.948 A 5.483 5.483 0 0 1 145.75 66.701 Q 144.5 65.801 144 64.501 L 140.2 53.001 A 2.247 2.247 0 0 0 139.909 52.38 Q 139.495 51.78 138.714 51.71 A 2.386 2.386 0 0 0 138.5 51.701 L 121.4 51.701 A 1.957 1.957 0 0 0 120.694 51.821 Q 119.979 52.096 119.7 53.001 L 115.9 64.501 A 4.873 4.873 0 0 1 114.419 66.528 A 5.906 5.906 0 0 1 114.2 66.701 Q 113 67.601 111.5 67.601 L 108.6 67.601 A 5.091 5.091 0 0 1 106.956 67.348 A 4.134 4.134 0 0 1 104.9 65.801 A 5.194 5.194 0 0 1 104.265 64.6 Q 103.737 63.15 104.3 61.601 L 123.7 3.101 Q 124.2 1.701 125.35 0.851 Q 126.5 0.001 127.9 0.001 L 132 0.001 Q 133.4 0.001 134.6 0.851 Q 135.8 1.701 136.2 3.101 Z M 393.3 3.101 L 412.8 61.601 A 5.804 5.804 0 0 1 412.975 62.624 Q 413.102 64.285 412.155 65.719 A 5.85 5.85 0 0 1 412.1 65.801 A 4.174 4.174 0 0 1 409.054 67.565 A 5.83 5.83 0 0 1 408.4 67.601 L 405.5 67.601 A 4.344 4.344 0 0 1 403.225 66.948 A 5.483 5.483 0 0 1 402.85 66.701 Q 401.6 65.801 401.1 64.501 L 397.3 53.001 A 2.247 2.247 0 0 0 397.009 52.38 Q 396.595 51.78 395.814 51.71 A 2.386 2.386 0 0 0 395.6 51.701 L 378.5 51.701 A 1.957 1.957 0 0 0 377.794 51.821 Q 377.079 52.096 376.8 53.001 L 373 64.501 A 4.873 4.873 0 0 1 371.519 66.528 A 5.906 5.906 0 0 1 371.3 66.701 Q 370.1 67.601 368.6 67.601 L 365.7 67.601 A 5.091 5.091 0 0 1 364.056 67.348 A 4.134 4.134 0 0 1 362 65.801 A 5.194 5.194 0 0 1 361.365 64.6 Q 360.837 63.15 361.4 61.601 L 380.8 3.101 Q 381.3 1.701 382.45 0.851 Q 383.6 0.001 385 0.001 L 389.1 0.001 Q 390.5 0.001 391.7 0.851 Q 392.9 1.701 393.3 3.101 Z M 247.9 4.601 L 247.9 7.301 Q 247.9 9.201 246.6 10.551 A 4.348 4.348 0 0 1 243.486 11.898 A 5.784 5.784 0 0 1 243.3 11.901 L 232.8 11.901 Q 231.769 11.901 231.556 12.719 A 1.915 1.915 0 0 0 231.5 13.201 L 231.5 63.001 A 4.424 4.424 0 0 1 230.192 66.208 A 5.392 5.392 0 0 1 230.15 66.251 A 4.425 4.425 0 0 1 226.96 67.6 A 5.312 5.312 0 0 1 226.9 67.601 L 224.3 67.601 A 4.424 4.424 0 0 1 221.093 66.293 A 5.392 5.392 0 0 1 221.05 66.251 A 4.425 4.425 0 0 1 219.701 63.06 A 5.312 5.312 0 0 1 219.7 63.001 L 219.7 13.201 Q 219.7 12.169 218.882 11.956 A 1.915 1.915 0 0 0 218.4 11.901 L 207.8 11.901 A 4.424 4.424 0 0 1 204.593 10.593 A 5.392 5.392 0 0 1 204.55 10.551 A 4.425 4.425 0 0 1 203.201 7.36 A 5.312 5.312 0 0 1 203.2 7.301 L 203.2 4.601 A 4.851 4.851 0 0 1 203.477 2.932 A 4.269 4.269 0 0 1 204.55 1.301 Q 205.9 0.001 207.8 0.001 L 243.3 0.001 A 5.034 5.034 0 0 1 244.943 0.258 A 4.286 4.286 0 0 1 246.6 1.301 A 4.391 4.391 0 0 1 247.889 4.232 A 5.865 5.865 0 0 1 247.9 4.601 Z M 207.3 60.401 L 207.3 63.001 A 4.424 4.424 0 0 1 205.992 66.208 A 5.392 5.392 0 0 1 205.95 66.251 A 4.705 4.705 0 0 1 204.561 67.231 A 4.228 4.228 0 0 1 202.8 67.601 L 168.4 67.601 A 4.294 4.294 0 0 1 165.338 66.336 A 5.636 5.636 0 0 1 165.25 66.251 A 4.425 4.425 0 0 1 163.901 63.06 A 5.312 5.312 0 0 1 163.9 63.001 L 163.9 4.601 A 4.851 4.851 0 0 1 164.177 2.932 A 4.269 4.269 0 0 1 165.25 1.301 Q 166.6 0.001 168.4 0.001 L 171.2 0.001 Q 173.1 0.001 174.45 1.301 A 4.348 4.348 0 0 1 175.797 4.415 A 5.784 5.784 0 0 1 175.8 4.601 L 175.8 54.501 Q 175.8 55.801 177 55.801 L 202.8 55.801 Q 204.6 55.801 205.95 57.101 A 4.348 4.348 0 0 1 207.297 60.215 A 5.784 5.784 0 0 1 207.3 60.401 Z M 454.1 27.901 L 454.1 13.301 A 2.187 2.187 0 0 0 454.04 12.764 Q 453.863 12.066 453.162 11.932 A 1.933 1.933 0 0 0 452.8 11.901 L 434.4 11.901 Q 433.369 11.901 433.156 12.719 A 1.915 1.915 0 0 0 433.1 13.201 L 433.1 27.901 Q 433.1 28.932 433.919 29.145 A 1.915 1.915 0 0 0 434.4 29.201 L 452.8 29.201 Q 453.832 29.201 454.045 28.382 A 1.915 1.915 0 0 0 454.1 27.901 Z M 135.5 38.601 L 130.5 23.301 Q 130.012 22.617 129.429 23.268 A 1.948 1.948 0 0 0 129.4 23.301 L 124.4 38.601 Q 124.213 39.068 124.463 39.448 A 1.042 1.042 0 0 0 124.5 39.501 A 1.004 1.004 0 0 0 124.819 39.784 Q 125.018 39.893 125.267 39.9 A 1.225 1.225 0 0 0 125.3 39.901 L 134.6 39.901 A 1.004 1.004 0 0 0 135.019 39.816 Q 135.239 39.716 135.4 39.501 A 0.911 0.911 0 0 0 135.542 39.231 Q 135.615 39.004 135.549 38.75 A 1.212 1.212 0 0 0 135.5 38.601 Z M 392.6 38.601 L 387.6 23.301 Q 387.112 22.617 386.529 23.268 A 1.948 1.948 0 0 0 386.5 23.301 L 381.5 38.601 Q 381.313 39.068 381.563 39.448 A 1.042 1.042 0 0 0 381.6 39.501 A 1.004 1.004 0 0 0 381.919 39.784 Q 382.118 39.893 382.367 39.9 A 1.225 1.225 0 0 0 382.4 39.901 L 391.7 39.901 A 1.004 1.004 0 0 0 392.119 39.816 Q 392.339 39.716 392.5 39.501 A 0.911 0.911 0 0 0 392.642 39.231 Q 392.715 39.004 392.649 38.75 A 1.212 1.212 0 0 0 392.6 38.601 Z"/></g></svg>