<svg width="563.135" height="108.455" viewBox="0 0 563.135 108.455" xmlns="http://www.w3.org/2000/svg"><g id="svgGroup" stroke-linecap="round" fill-rule="evenodd" font-size="9pt" stroke="#dbebff00" stroke-width="0.0mm" fill="#dbebff" style="stroke:#dbebff00;stroke-width:0.0mm;fill:#dbebff"><path d="M 407.081 107.666 L 391.553 107.666 L 391.553 21.729 L 417.725 21.729 L 424.952 74.121 L 432.13 21.729 L 458.546 21.729 L 458.546 107.666 L 442.823 107.666 L 442.823 45.752 L 432.96 107.666 L 417.53 107.666 L 407.081 45.752 L 407.081 107.666 Z M 224.415 107.666 L 207.325 107.666 L 207.325 21.729 L 224.317 21.729 L 224.317 56.152 L 232.325 21.729 L 249.61 21.729 L 239.991 61.084 L 251.612 107.666 L 233.79 107.666 L 224.415 66.064 L 224.415 107.666 Z M 295.069 107.666 L 277.979 107.666 L 277.979 21.729 L 295.069 21.729 L 295.069 52.441 L 303.175 52.441 L 303.175 21.729 L 320.264 21.729 L 320.264 107.666 L 303.175 107.666 L 303.175 68.701 L 295.069 68.701 L 295.069 107.666 Z M 95.753 82.08 L 95.753 45.02 Q 95.753 20.947 116.846 20.947 Q 122.55 20.947 126.508 22.451 A 14.792 14.792 0 0 1 130.176 24.438 A 16.415 16.415 0 0 1 135.151 30.662 A 22.755 22.755 0 0 1 136.573 34.619 A 48.27 48.27 0 0 1 137.711 40.538 Q 138.331 45.216 138.331 50.928 L 121.534 50.928 L 121.534 43.311 A 17.029 17.029 0 0 0 121.427 41.35 Q 121.25 39.822 120.777 38.647 A 2.776 2.776 0 0 0 118.848 36.917 Q 118.303 36.768 117.628 36.768 A 6.826 6.826 0 0 0 116.227 36.901 Q 115.415 37.071 114.824 37.46 A 3.158 3.158 0 0 0 113.697 38.77 A 9.935 9.935 0 0 0 112.76 42.572 A 11.673 11.673 0 0 0 112.745 43.164 L 112.745 84.814 Q 112.745 87.286 113.204 89.1 A 9.773 9.773 0 0 0 113.648 90.454 A 3.49 3.49 0 0 0 114.618 91.82 Q 115.273 92.369 116.225 92.544 A 5.309 5.309 0 0 0 117.188 92.627 A 5.265 5.265 0 0 0 118.564 92.46 A 3.266 3.266 0 0 0 120.826 90.454 Q 121.482 88.875 121.662 86.562 A 23.901 23.901 0 0 0 121.729 84.717 L 121.729 72.461 L 117.139 72.461 L 117.139 57.617 L 138.135 57.617 L 138.135 107.666 L 131.251 107.666 L 128.321 100.439 Q 124.377 107.47 116.444 108.328 A 21.227 21.227 0 0 1 114.161 108.447 Q 98.774 108.447 96.249 90.025 A 58.725 58.725 0 0 1 95.753 82.08 Z M 0.001 83.936 L 0.001 75.537 L 16.993 75.537 L 16.993 86.279 A 15.962 15.962 0 0 0 17.081 88.015 Q 17.275 89.784 17.896 90.942 A 3.033 3.033 0 0 0 20.097 92.54 A 4.92 4.92 0 0 0 21.046 92.627 A 6.294 6.294 0 0 0 22.189 92.53 Q 23.629 92.264 24.293 91.26 A 4.21 4.21 0 0 0 24.769 90.234 Q 25.101 89.209 25.175 87.683 A 18.956 18.956 0 0 0 25.196 86.768 A 33.177 33.177 0 0 0 25.086 83.983 Q 24.972 82.632 24.739 81.477 A 15.733 15.733 0 0 0 24.415 80.151 A 14.21 14.21 0 0 0 22.597 76.297 A 17.146 17.146 0 0 0 21.705 75.073 Q 19.776 72.656 16.358 69.434 L 8.643 62.109 Q 0.001 53.955 0.001 43.457 A 37.89 37.89 0 0 1 0.499 37.101 Q 1.081 33.685 2.344 30.965 A 17.475 17.475 0 0 1 5.103 26.709 A 16.463 16.463 0 0 1 13.735 21.636 Q 16.444 20.969 19.665 20.948 A 32.2 32.2 0 0 1 19.874 20.947 A 34.75 34.75 0 0 1 25.939 21.439 Q 29.172 22.013 31.674 23.259 A 14.377 14.377 0 0 1 36.646 27.246 Q 41.602 33.545 41.602 46.387 L 24.122 46.387 L 24.122 40.479 Q 24.122 38.721 23.121 37.744 A 3.342 3.342 0 0 0 21.456 36.873 A 4.926 4.926 0 0 0 20.411 36.768 Q 18.36 36.768 17.408 37.915 A 4.034 4.034 0 0 0 16.568 39.705 A 5.735 5.735 0 0 0 16.456 40.869 Q 16.456 42.676 17.432 44.775 Q 18.409 46.875 21.29 49.609 L 31.202 59.131 A 57.234 57.234 0 0 1 36.671 65.112 Q 39.161 68.262 40.675 72.437 Q 41.949 75.951 42.15 80.763 A 44.32 44.32 0 0 1 42.188 82.617 A 53.488 53.488 0 0 1 41.752 89.673 Q 41.257 93.384 40.201 96.436 A 23.454 23.454 0 0 1 37.72 101.587 A 14.148 14.148 0 0 1 29.818 107.4 Q 26.498 108.447 22.169 108.447 A 37.314 37.314 0 0 1 16.069 107.984 Q 12.838 107.447 10.304 106.289 A 15.112 15.112 0 0 1 5.201 102.588 A 17.561 17.561 0 0 1 1.932 96.952 Q 0.121 92.058 0.008 84.9 A 61.019 61.019 0 0 1 0.001 83.936 Z M 501.661 107.666 L 466.163 107.666 L 466.163 21.729 L 500.538 21.729 L 500.538 38.33 L 483.643 38.33 L 483.643 55.078 L 499.854 55.078 L 499.854 71.24 L 483.643 71.24 L 483.643 90.918 L 501.661 90.918 L 501.661 107.666 Z M 385.255 107.666 L 348.292 107.666 L 348.292 92.041 L 367.969 37.549 L 350.196 37.549 L 350.196 21.729 L 386.085 21.729 L 386.085 36.768 L 366.065 91.846 L 385.255 91.846 L 385.255 107.666 Z M 62.257 107.666 L 45.557 107.666 L 53.858 21.729 L 83.008 21.729 L 91.163 107.666 L 74.903 107.666 L 73.682 93.799 L 63.331 93.799 L 62.257 107.666 Z M 531.885 107.666 L 514.698 107.666 L 514.698 38.232 L 504.493 38.232 L 504.493 21.729 L 542.091 21.729 L 542.091 38.232 L 531.885 38.232 L 531.885 107.666 Z M 179.786 107.666 L 144.923 107.666 L 144.923 21.729 L 162.11 21.729 L 162.11 93.018 L 179.786 93.018 L 179.786 107.666 Z M 200.489 107.666 L 183.887 107.666 L 183.887 21.729 L 200.489 21.729 L 200.489 107.666 Z M 343.702 107.666 L 327.1 107.666 L 327.1 21.729 L 343.702 21.729 L 343.702 107.666 Z M 562.696 107.666 L 546.094 107.666 L 546.094 21.729 L 562.696 21.729 L 562.696 107.666 Z M 97.95 0 L 110.45 0 A 8.751 8.751 0 0 0 110.588 1.608 Q 110.892 3.233 111.866 4.224 A 3.854 3.854 0 0 0 113.151 5.058 Q 114.345 5.556 116.204 5.645 A 17.592 17.592 0 0 0 117.042 5.664 A 15.436 15.436 0 0 0 118.775 5.574 Q 120.583 5.369 121.63 4.697 A 3.378 3.378 0 0 0 122.217 4.224 A 4.579 4.579 0 0 0 123.301 2.381 Q 123.633 1.348 123.633 0 L 136.133 0 Q 136.182 0.488 136.207 0.977 A 32.267 32.267 0 0 1 136.217 1.205 Q 136.227 1.426 136.23 1.581 A 6.79 6.79 0 0 1 136.231 1.709 A 19.996 19.996 0 0 1 135.769 6.157 Q 134.673 10.958 130.982 13.55 A 18.801 18.801 0 0 1 125.094 16.249 Q 122.618 16.928 119.695 17.14 A 38.017 38.017 0 0 1 116.944 17.236 A 33.042 33.042 0 0 1 111.222 16.77 Q 107.991 16.201 105.382 14.939 A 17.785 17.785 0 0 1 103.101 13.623 A 11.654 11.654 0 0 1 98.246 6.289 A 19.028 19.028 0 0 1 97.803 2.051 A 14.484 14.484 0 0 1 97.95 0 Z M 67.823 36.377 L 64.551 80.078 L 72.364 80.078 L 68.604 36.377 L 67.823 36.377 Z M 344.141 17.236 L 326.661 17.236 L 326.661 2.686 L 344.141 2.686 L 344.141 17.236 Z M 563.135 17.236 L 545.655 17.236 L 545.655 2.686 L 563.135 2.686 L 563.135 17.236 Z"/></g></svg>